<svg xmlns="http://www.w3.org/2000/svg" viewBox="0 0 500 500"><defs><style>.cls-1{isolation:isolate;}.cls-2{fill:#e2eeea;}.cls-3{fill:#ededb2;}.cls-4{fill:#ffe33e;}.cls-5,.cls-6{fill:#231f20;mix-blend-mode:multiply;}.cls-5{opacity:0.1;}.cls-6{opacity:0.05;}.cls-7{fill:#fff;}.cls-8{fill:#f9ae40;}.cls-9{fill:#f5911e;}.cls-10{fill:#ef5a28;}</style></defs><g class="cls-1"><g id="OBJECTS"><path class="cls-2" d="M194.5,265.43c13,2.82,28-1.28,39.44-7.74a63.44,63.44,0,0,0,5.48-3.48,41.46,41.46,0,0,0,9.17-8.62c.4-.55.77-1.1,1.11-1.64a15.38,15.38,0,0,0,1.72-3.75s0,0,0,0a10.41,10.41,0,0,0,.38-1.86c0-.14,0-.28,0-.42,0-.36,0-.62,0-.75h0a6.65,6.65,0,0,0-.17-1.35s0,0,0,0v0a7.11,7.11,0,0,0-.44-1.3l-.05-.12a20.17,20.17,0,0,0-2.43-3.89,46.64,46.64,0,0,0-7.14-7.19c-1.4-1.15-2.92-2.3-4.55-3.42-12.06-8.33-30.12-15.19-49-10.92-30.38,6.85-35.13,19.73-10.46,47A31.32,31.32,0,0,0,194.5,265.43Z"/><path class="cls-3" d="M200,230.65c-5.18,9.19,13.91,24.83,24.46,27.43a18.82,18.82,0,0,0,9.46-.39c12.19-6.91,20.26-16.5,17.3-23.26-1.73-4-6.84-9.57-14.17-14.62a46.35,46.35,0,0,0-11.1-2.12C216.37,217.25,205.2,221.45,200,230.65Z"/><path class="cls-4" d="M215.25,233.27c-4.52,8,10.27,18.25,19.47,20.51a16,16,0,0,0,4.7.43c9-6.41,14.31-14.1,11.82-19.78-1.34-3.09-4.73-7.17-9.62-11.2-1.49-.5-2.77-.92-3.74-1.26C230,219.23,219.77,225.25,215.25,233.27Z"/><path class="cls-5" d="M166.06,233.6c2.61,3.39,31.65,9.87,57.59,1.07,12.7-4.31,23.27,4.66,24.94,10.92,2.16-2.92,3.35-5.81,3.26-8.44h0c-4.57-7.46-11.26-14.22-28.13-19.48s-39.07-3.57-48.72.1S163.44,230.22,166.06,233.6Z"/><path class="cls-5" d="M251.19,234.31s.2.61.49,1.43a6.73,6.73,0,0,0-.44-1.31Z"/><path class="cls-5" d="M227.45,231.35C241,232.62,247,238,249.7,244a15.21,15.21,0,0,0,1.72-3.75s0,0,0,0a9.45,9.45,0,0,0,.38-1.86c-12.87-20.81-43.65-23.42-55.72-21C190.13,218.48,217.69,230.44,227.45,231.35Z"/><path class="cls-5" d="M194.5,265.43c13,2.82,28-1.28,39.44-7.74a63.44,63.44,0,0,0,5.48-3.48,41.46,41.46,0,0,0,9.17-8.62c.4-.55.77-1.1,1.11-1.64a15.38,15.38,0,0,0,1.72-3.75s0,0,0,0a10.41,10.41,0,0,0,.38-1.86c0-.14,0-.28,0-.42,0-.36,0-.62,0-.75h0a6.65,6.65,0,0,0-.17-1.35c-17.11-5.15-37.07,20.87-46.32,26.81C202.56,264.4,198.13,265.14,194.5,265.43Z"/><path class="cls-2" d="M264.53,312.25a30.37,30.37,0,0,0,4.35-4.19c11.84-13.92,8.89-36,1.25-51.91a63.82,63.82,0,0,0-3.11-5.7,41.05,41.05,0,0,0-8-9.72c-.52-.44-1-.85-1.56-1.21a15.48,15.48,0,0,0-3.62-2h0l-.25-.09a9.15,9.15,0,0,0-1.58-.4,3.1,3.1,0,0,0-.42-.08c-.36,0-.62-.06-.75-.06h0a8.11,8.11,0,0,0-1.4.08h0a8.05,8.05,0,0,0-1.34.36l-.12,0a19.47,19.47,0,0,0-4,2.16,45.45,45.45,0,0,0-7.64,6.65c-1.25,1.32-2.5,2.75-3.72,4.31-9.12,11.47-17.16,29-14.16,48.19C223.2,329.46,235.73,335.05,264.53,312.25Z"/><path class="cls-3" d="M240.89,288.2c8.83,5.78,25.71-12.23,29-22.59a18.89,18.89,0,0,0,.24-9.46C264,243.52,255,234.84,248.07,237.34c-4.09,1.46-10,6.19-15.53,13.17a46.57,46.57,0,0,0-2.86,10.93C228.61,271,232.05,282.42,240.89,288.2Z"/><path class="cls-4" d="M244.52,273.17c7.7,5,18.89-9,21.76-18.06a16.07,16.07,0,0,0,.74-4.66c-5.8-9.41-13.12-15.22-18.95-13.11-3.17,1.14-7.47,4.25-11.82,8.86-.6,1.45-1.1,2.69-1.5,3.64C231.49,257.56,236.81,268.13,244.52,273.17Z"/><path class="cls-6" d="M241.58,322.28c3.56-2.38,11.95-30.93,4.89-57.39-3.45-13,6.2-22.92,12.55-24.16-2.77-2.35-5.57-3.73-8.19-3.82h0c-7.74,4.06-14.94,10.29-21.3,26.78s-6.17,38.74-3.15,48.61S238,324.67,241.58,322.28Z"/><path class="cls-5" d="M247.94,237.39s.63-.17,1.46-.4a6.21,6.21,0,0,0-1.33.35C248,237.36,247.94,237.38,247.94,237.39Z"/><path class="cls-6" d="M243.42,260.87c2.16-13.44,8-19.09,14-21.36a15.59,15.59,0,0,0-3.62-2h0A10.38,10.38,0,0,0,252,237c-21.62,11.46-26.28,42-24.69,54.2C228.1,297.25,241.86,270.56,243.42,260.87Z"/><path class="cls-7" d="M224.64,315.23s-11.27-47.74,16.7-73.15C241.34,242.08,206.44,271.86,224.64,315.23Z"/><path class="cls-5" d="M268.88,308.06c11.84-13.92,8.89-36,1.25-51.91a63.82,63.82,0,0,0-3.11-5.7,41.05,41.05,0,0,0-8-9.72c-.52-.44-1-.85-1.56-1.21a15.48,15.48,0,0,0-3.62-2h0l-.25-.09c-13.13,15.55,11.24,42.62,15.57,53.49C271.52,296.88,268.88,308.06,268.88,308.06Z"/><path class="cls-2" d="M295.79,295.7c30.13,7.88,40.27-1.37,30.88-36.88a30.75,30.75,0,0,0-6.54-12.36c-9.92-11.4-27.67-15.75-42.65-15.2-2.23.09-4.4.28-6.47.57a41,41,0,0,0-12.1,3.45c-.61.3-1.2.61-1.74.94a15.65,15.65,0,0,0-3.26,2.53h0c-.12.11-.22.23-.33.35a9.92,9.92,0,0,0-.86,1.13,3.5,3.5,0,0,0-.23.35c-.18.32-.3.55-.36.67h0a8.43,8.43,0,0,0-.49,1.32v0a7.56,7.56,0,0,0-.21,1.36,1.25,1.25,0,0,0,0,.14,20.23,20.23,0,0,0,.37,4.56,46.67,46.67,0,0,0,3,9.67q1.06,2.51,2.46,5.13C264.16,276.4,277.05,290.79,295.79,295.7Z"/><path class="cls-3" d="M295.17,270.87c8.83-5.78-.93-28.45-9.11-35.61a18.85,18.85,0,0,0-8.58-4c-14,.53-25.58,5.34-26.06,12.7-.29,4.33,1.68,11.65,5.86,19.5a47.06,47.06,0,0,0,8.88,7C274.49,275.25,286.34,276.66,295.17,270.87Z"/><path class="cls-4" d="M282.85,261.54c7.7-5.05-.73-20.93-7.86-27.17a16.08,16.08,0,0,0-4-2.54c-10.94,1.55-19.19,5.94-19.59,12.13-.22,3.36.91,8.54,3.4,14.37,1.09,1.13,2,2.09,2.74,2.84C263.33,267.24,275.15,266.59,282.85,261.54Z"/><path class="cls-6" d="M326.69,283.86c-.77-4.21-23.58-23.32-50.66-27.43-13.25-2-18.52-14.84-17.12-21.16-3.26,1.6-5.65,3.62-6.78,6h0c.63,8.72,3.46,17.8,16,30.23s33,21.14,43.3,22.31S327.45,288.07,326.69,283.86Z"/><path class="cls-5" d="M251.41,244.1s.1-.64.22-1.5a7.56,7.56,0,0,0-.21,1.36A1.25,1.25,0,0,0,251.41,244.1Z"/><path class="cls-6" d="M271.13,257.63c-11.45-7.35-14.31-14.94-14-21.41a15.65,15.65,0,0,0-3.26,2.53h0a10.29,10.29,0,0,0-1.19,1.48c1.86,24.4,28,40.87,39.81,44.29C298.36,286.22,279.39,262.93,271.13,257.63Z"/><path class="cls-7" d="M309.65,296.26s-47.6-11.81-57.4-48.3C252.25,248,262.77,292.6,309.65,296.26Z"/><path class="cls-5" d="M253.58,239.11c13,9.62,40.26,1.12,50.39,1.24,6.68.08,12.37,3.25,16.16,6.11-9.92-11.4-27.67-15.75-42.65-15.2-2.23.09-4.4.28-6.47.57a41,41,0,0,0-12.1,3.45c-.61.3-1.2.61-1.74.94a15.65,15.65,0,0,0-3.26,2.53h0C253.79,238.87,253.69,239,253.58,239.11Z"/><path class="cls-2" d="M256.64,240.12c.2.17.37.3.48.38a.33.33,0,0,0,.11.08h0a8.4,8.4,0,0,0,1.22.71h0a6.73,6.73,0,0,0,1.31.44l.13,0a19.54,19.54,0,0,0,4.58.38,46.32,46.32,0,0,0,10-1.42q2.65-.65,5.47-1.6c13.89-4.67,30.19-15.05,38.07-32.75,12.68-28.44,5.2-40-31.36-36.47A30.54,30.54,0,0,0,274.05,174c-13.26,7.76-20.64,24.87-22.56,40a63.73,63.73,0,0,0-.49,6.47,41.29,41.29,0,0,0,1.43,12.5c.2.65.42,1.28.65,1.87a15.42,15.42,0,0,0,2,3.63h0a11.66,11.66,0,0,0,1.27,1.42A2.79,2.79,0,0,0,256.64,240.12Z"/><path class="cls-3" d="M293.46,202.93c-4.28-9.65-28.23-3.7-36.62,3.2a18.78,18.78,0,0,0-5.35,7.82c-1.76,13.9,1.11,26.1,8.29,27.78,4.23,1,11.77.24,20.2-2.62a46.82,46.82,0,0,0,8.34-7.62C294.41,224.05,297.73,212.59,293.46,202.93Z"/><path class="cls-4" d="M282.24,213.58c-3.72-8.42-20.77-2.69-28.08,3.33a15.86,15.86,0,0,0-3.16,3.51c-.24,11.05,2.75,19.9,8.78,21.31,3.29.76,8.58.49,14.74-1l3.24-2.24C284.69,233.76,286,222,282.24,213.58Z"/><path class="cls-6" d="M311.4,174c-4.28.07-26.84,19.47-35.3,45.52-4.15,12.75-17.66,15.86-23.67,13.45,1,3.48,2.65,6.16,4.8,7.66h0c8.71.8,18.13-.51,32.44-10.89s26.23-29.17,29.06-39.1S315.68,173.88,311.4,174Z"/><path class="cls-5" d="M259.92,241.75l-1.45-.46a7.47,7.47,0,0,0,1.31.44Z"/><path class="cls-6" d="M276.48,224.5c-9.12,10.11-17.07,11.69-23.4,10.29a15.42,15.42,0,0,0,2,3.63h0a10.21,10.21,0,0,0,1.26,1.42c24.38,2.13,44.89-21,50.18-32.08C309.11,202.29,283.05,217.22,276.48,224.5Z"/><path class="cls-7" d="M321.83,187.63S306.15,234.1,269,240.88C269,240.88,314.33,234.06,321.83,187.63Z"/><path class="cls-5" d="M251,220.42a63.73,63.73,0,0,1,.49-6.47c1.92-15.11,9.3-32.22,22.56-40-2.3,3-5.82,8.23-6.31,12.45-1.22,10.75-.41,37.33-15,47.33l-.27-.83A41.29,41.29,0,0,1,251,220.42Z"/><path class="cls-2" d="M225.78,227.14a63.85,63.85,0,0,0,5.63,3.24,40.79,40.79,0,0,0,11.89,4.12c.67.11,1.33.18,2,.23a15.72,15.72,0,0,0,4.12-.21h0a8.93,8.93,0,0,0,1.82-.54,2.26,2.26,0,0,0,.39-.15l.68-.34.18-.11a6.89,6.89,0,0,0,1-.69h0a8.18,8.18,0,0,0,1-1c.05-.07.07-.11.08-.11a19.81,19.81,0,0,0,2.31-4,45.32,45.32,0,0,0,3.06-9.66c.38-1.77.69-3.65.92-5.61,1.8-14.54-.5-33.73-13.05-48.5-20.16-23.73-33.77-22-46.45,12.5a30.5,30.5,0,0,0-1.79,13.12C200.75,204.79,213,218.87,225.78,227.14Z"/><path class="cls-3" d="M234,184.54c-10.55-.32-15.55,23.85-13,34.4a18.79,18.79,0,0,0,4.73,8.2c11.78,7.6,24,10.3,28.64,4.55,2.71-3.39,5.3-10.51,6.37-19.34a47,47,0,0,0-3.26-10.82C253.46,192.82,244.56,184.87,234,184.54Z"/><path class="cls-4" d="M238.75,199.26c-9.2-.29-11.41,17.56-9.15,26.76a16.05,16.05,0,0,0,1.81,4.36c9.85,5,19.13,6.14,23,1.31,2.1-2.63,4.15-7.52,5.45-13.73-.24-1.54-.46-2.87-.62-3.89C258,205.78,248,199.54,238.75,199.26Z"/><path class="cls-6" d="M215.64,155.83c-1.79,3.89,5.94,32.62,25.76,51.52,9.71,9.25,6.67,22.78,1.9,27.15,3.58.57,6.7.28,9-1h0c4.49-7.5,7.39-16.56,4.22-33.95s-14.95-36.27-22.68-43.12S217.43,151.94,215.64,155.83Z"/><path class="cls-5" d="M254.5,231.58s-.45.46-1,1.1a8.18,8.18,0,0,0,1-1C254.47,231.62,254.49,231.58,254.5,231.58Z"/><path class="cls-6" d="M246.11,209.18c5.16,12.6,3.15,20.45-.85,25.55a15.72,15.72,0,0,0,4.12-.21h0a10.38,10.38,0,0,0,1.82-.53c12.47-21.06.51-49.54-7.2-59.12C240.2,170.15,242.39,200.1,246.11,209.18Z"/><path class="cls-7" d="M231.77,151.43s35.55,33.78,26,70.36C257.82,221.79,270.73,177.77,231.77,151.43Z"/><path class="cls-5" d="M225.78,227.14a63.85,63.85,0,0,0,5.63,3.24,40.79,40.79,0,0,0,11.89,4.12c.67.11,1.33.18,2,.23a15.72,15.72,0,0,0,4.12-.21h0a8.93,8.93,0,0,0,1.82-.54,2.26,2.26,0,0,0,.39-.15l.68-.34.18-.11c1.12-20.29-34.58-27.32-44.56-33.41-3.46-2.11-6.58-7.12-8.4-10.5C200.75,204.79,213,218.87,225.78,227.14Z"/><path class="cls-2" d="M194.5,265.43h0c.65.15,1.32.27,2,.38l1,.14,1,.13c1,.11,2,.19,3.07.22l1,0h2.08c.69,0,1.38-.06,2.08-.11l1-.08c1.39-.14,2.78-.32,4.17-.55,9.19-14.52,20.28-27.14,38-30.18l1.56-.25c-.09-.24-.17-.48-.28-.71l-.05-.12a20.17,20.17,0,0,0-2.43-3.89,46.64,46.64,0,0,0-7.14-7.19c-1.4-1.15-2.92-2.3-4.55-3.42-12.06-8.33-30.12-15.19-49-10.92-30.38,6.85-35.13,19.73-10.46,47A31.35,31.35,0,0,0,194.5,265.43Z"/><path class="cls-3" d="M251.5,235.15c-14.38,2-24.5,10.17-32.72,20.69-10.43-5.29-23.1-17.5-18.76-25.19,5.18-9.2,16.35-13.4,25.95-13a46.35,46.35,0,0,1,11.1,2.12c7.33,5.05,12.44,10.64,14.17,14.62A6.18,6.18,0,0,1,251.5,235.15Z"/><path class="cls-4" d="M251.5,235.15c-11.19,1.54-19.8,6.84-26.94,14.08-6.76-4.3-12.32-10.62-9.31-16,4.52-8,14.71-14,22.63-11.3,1,.34,2.25.76,3.74,1.26,4.89,4,8.27,8.11,9.62,11.2A6.18,6.18,0,0,1,251.5,235.15Z"/><path class="cls-6" d="M242.25,237.45a20.26,20.26,0,0,0-18.6-2.78c-25.94,8.8-55,2.32-57.59-1.07s-.7-12.17,8.94-15.83,31.85-5.35,48.72-.1c15.45,4.81,22.36,10.89,26.92,17.61A43.15,43.15,0,0,0,242.25,237.45Z"/><path class="cls-6" d="M244,236.84c-3.61-2.72-8.87-4.77-16.55-5.49-9.76-.91-37.32-12.87-31.37-14,11.48-2.28,39.87,0,53.69,18.12A43.43,43.43,0,0,0,244,236.84Z"/><path class="cls-7" d="M173.92,215.61s47.2-13.32,73.79,13.52C247.71,229.13,216.46,195.56,173.92,215.61Z"/><path class="cls-5" d="M194.53,265.43c.65.15,1.32.27,2,.38l1,.14,1,.13c1,.11,2,.19,3.07.22l1,0h2.08c.68,0,1.38-.06,2.08-.11l1-.08c1.39-.14,2.78-.32,4.17-.55,9.19-14.52,20.28-27.14,38-30.18-16.71-3-35.65,21.48-44.6,27.22C202.57,264.4,198.15,265.14,194.53,265.43Z"/><path class="cls-8" d="M246.94,228.1a6,6,0,0,1,3.34,1c1.11,1,.71,3.17,1.36,3.79s3.91-2.14,5.17-5.26c0,0-.53,4.67-3.37,6.73,0,0,2.57,8.11,9.15,7.75,0,0-4.94.56-7.32-1.61s-4.12,4.7-3.66,7.15a7.64,7.64,0,0,1-.71-7.83c2.11-4.29-6.34-1.89-9,1.15,0,0,.53-3.15,2.84-4.3s3.36-.74,4.64-1.7S248.69,229.44,246.94,228.1Z"/><path class="cls-9" d="M250.3,232.63s1.08,2.5.72,3.21-3.08.3-4,1.31c0,0,2.92-.73,3.79-.24s.7,2.09.6,3.83c0,0,.72-2.34,1.45-2.4s2.33,1.11,2.89,1.3c0,0-3.75-2.8-3.62-4.48a4.62,4.62,0,0,0,1.74-2.12,7.72,7.72,0,0,1-2.17,1.76S251,232.93,250.3,232.63Z"/><path class="cls-10" d="M251.38,235.39a1.3,1.3,0,0,0-.22,1,6.73,6.73,0,0,1,.64,2s.14-1,.64-.78a3,3,0,0,1,.95.65s-1.74-1.41-1.71-2.4S252.05,234.7,251.38,235.39Z"/></g></g></svg>